<svg xmlns="http://www.w3.org/2000/svg" width="162.14" height="197.95" viewBox="0 0 162.14 197.95">
  <g id="Group_906" data-name="Group 906" transform="translate(-151 -84)">
    <g id="Group_903" data-name="Group 903" transform="translate(151 137.376)" opacity="0.05">
      <g id="Group_660" data-name="Group 660">
        <path id="Path_15615" data-name="Path 15615" d="M451.782,804.546A45.457,45.457,0,0,1,450.3,809.9a50.9,50.9,0,0,1-2.125,5.184c-.223.452-.419.9-.643,1.377a37.308,37.308,0,0,1-2.153,3.743c-.615,1.033-1.286,2.065-2.013,3.055l-.028.021a57.2,57.2,0,0,1-7.744,9.1l-.028.022a72.309,72.309,0,0,1-6.262,5.4c-.867.667-1.761,1.334-2.656,1.958a84.7,84.7,0,0,1-20.3,10.391q-3.262,1.206-6.682,2.13c-2.236.624-4.473,1.161-6.765,1.635-1.705.344-3.383.646-5.144.9h-.028c-.587.086-1.2.172-1.817.237-2.883.4-5.8.67-8.722.8-2.568.147-5.144.176-7.716.086a.75.75,0,0,1-.447,0c-1.7-.016-3.4-.109-5.088-.28a11.2,11.2,0,0,1-1.482-.086c-1.258-.107-2.488-.237-3.718-.409-2.642-.3-5.257-.733-7.828-1.291a92.719,92.719,0,0,1-9.421-2.409c-1.733-.517-3.439-1.1-5.144-1.743a91.824,91.824,0,0,1-9.393-4.131c-2.237-1.161-4.445-2.409-6.57-3.764a75.422,75.422,0,0,1-14.09-11.489c-1.23-1.291-2.376-2.6-3.439-3.958a54.7,54.7,0,0,1-8.75-15.1,46.485,46.485,0,0,1-1.985-6.519,48.09,48.09,0,0,1,1.146-25.988c.14-.366.251-.731.419-1.076a26.947,26.947,0,0,1,1.23-3.206c.14-.43.335-.817.5-1.226.224-.473.447-.947.727-1.441a7.056,7.056,0,0,1,.587-1.2c.168-.344.364-.689.559-1.012v-.064a55.265,55.265,0,0,1,5.479-8.154v-.065a67.143,67.143,0,0,1,11.854-11.467,79.879,79.879,0,0,1,6.877-4.711h.028a77.109,77.109,0,0,1,8.974-4.755h.028a88.956,88.956,0,0,1,11.127-4.238c.531-.172,1.09-.323,1.621-.473.615-.194,1.23-.366,1.845-.538s1.238-.316,1.873-.43l.028-.021q2.086-.571,4.249-.947l.028-.022c.391-.086.783-.172,1.174-.237a105.29,105.29,0,0,1,41.906.6h.028q4.765,1.036,9.337,2.517h.056a87.751,87.751,0,0,1,8.834,3.442h.028q2.9,1.266,5.619,2.754a71.107,71.107,0,0,1,25.356,21.944c1.007,1.441,1.9,2.926,2.74,4.41a54.549,54.549,0,0,1,3.8,8.477,39.208,39.208,0,0,1,1.761,6.067,25.589,25.589,0,0,1,.5,2.861,4.711,4.711,0,0,1,.14,1.076,29.5,29.5,0,0,1,.335,3.829,1.444,1.444,0,0,1,.028.6A45.994,45.994,0,0,1,451.782,804.546Z" transform="translate(-290.859 -731.67)" fill="#37d3a5"/>
        <path id="Path_15616" data-name="Path 15616" d="M446.745,825.452c-2.181.94-4.445,1.8-6.738,2.587a146.9,146.9,0,0,1-41.1,6.8c-11.071.15-25.385-1.454-32.569-9.343,33.008-10.064,61.706-26.948,82.89-48.765-.839-1.475-1.733-2.951-2.74-4.383-20.845,22.2-49.613,39.339-82.862,49.363-.056-.107-.14-.235-.2-.363l-.168-.385c-6.15-13.383,1.957-29.673,10.763-39.55,10.042-11.587,23.555-21.174,39.418-27.963q3.728-1.626,7.688-2.908-2.718-1.477-5.619-2.737h-.028c-1.678.62-3.243,1.283-4.725,1.9-16.646,7.112-30.83,17.161-41.375,29.31-9.533,10.689-18.227,28.476-11.378,43.377a3.486,3.486,0,0,0,.2.47l.251.449q-11.683,3.4-23.791,5.836h-.028a59.782,59.782,0,0,1-10.456-16.739,23.381,23.381,0,0,0,12.245-6.521,37.436,37.436,0,0,0,4-4.6c1.678-2.245,3.327-4.511,5-6.777,5.647-7.654,11.462-15.606,17.948-22.982,8.722-9.963,17.529-19.241,29.55-23.688a66.377,66.377,0,0,1,13.671-3.463q-4.564-1.47-9.337-2.5h-.028A70.234,70.234,0,0,0,390.5,744c-13.307,4.9-22.616,14.687-31.758,25.142-6.6,7.546-12.5,15.542-18.2,23.281-1.649,2.266-3.3,4.511-4.976,6.756a33.058,33.058,0,0,1-3.523,4.083,17.608,17.608,0,0,1-9.365,5.024h-.028c-9.449-29.46,9.142-57.83,10.707-60.138a77.178,77.178,0,0,0-8.974,4.725h-.028c-5.619,10.647-14.286,32.09-7.6,54.922a15.4,15.4,0,0,1-3.411-1.732,16.14,16.14,0,0,1-6.625-10.818,40.714,40.714,0,0,1-.727-7.2c0-.107-.28-9.941-.364-19.027a54.878,54.878,0,0,0-5.479,8.1v.064c.112,6.029.251,10.882.251,10.946a44.444,44.444,0,0,0,.783,7.782c.654,5.072,3.647,9.8,8.443,13.34a19.476,19.476,0,0,0,8.778,3.335A62.091,62.091,0,0,0,328.91,830.22c-3.075.556-6.151,1.069-9.253,1.539a82.328,82.328,0,0,0-24.685-19.647,46.01,46.01,0,0,0,1.985,6.478A76.428,76.428,0,0,1,313.7,832.614c-2.712.364-5.4.684-8,.984,1.062,1.347,2.208,2.651,3.438,3.934,2.516-.3,5.088-.641,7.716-1a40.9,40.9,0,0,1,6.374,12.421c2.125,1.347,4.333,2.587,6.57,3.741a42.28,42.28,0,0,0-7.157-17.017q4.864-.77,9.645-1.668A92.437,92.437,0,0,0,350.52,848.67c-7.66,2.48-10.372,5.943-11.322,8.124,1.706.641,3.411,1.219,5.144,1.731.28-1.09,2.013-4.554,11.378-6.755a163.97,163.97,0,0,0,24.322,11.117c2.926-.125,5.839-.389,8.722-.791.615-.064,1.23-.15,1.817-.235a180.578,180.578,0,0,1-27.453-11.309,142.581,142.581,0,0,1,23.371-.256,144.32,144.32,0,0,0,43-3.4c.895-.62,1.789-1.283,2.656-1.945a72.316,72.316,0,0,0,6.262-5.366c-10.344,3.87-27.313,7.889-51.467,6.456a129.159,129.159,0,0,0-30.053,1.069,93.1,93.1,0,0,1-18.786-14.281q11.629-2.365,22.869-5.686c6.542,7.846,19.15,11.972,36.734,11.972H399a154.884,154.884,0,0,0,43.276-7.162c1.314-.449,2.628-.919,3.914-1.432l.028-.021c.727-.984,1.4-2.01,2.013-3.036a36.932,36.932,0,0,0,2.152-3.72C449.205,824.341,448,824.9,446.745,825.452Z" transform="translate(-293.706 -738.741)"/>
      </g>
    </g>
    <g id="Group_904" data-name="Group 904" transform="translate(151 106.954)">
      <g id="Group_902" data-name="Group 902">
        <g id="Group_660-2" data-name="Group 660">
          <path id="Path_15615-2" data-name="Path 15615" d="M451.782,813.545a56.1,56.1,0,0,1-1.482,6.019,61.371,61.371,0,0,1-2.125,5.825c-.223.508-.419,1.016-.643,1.547a43.5,43.5,0,0,1-2.153,4.206c-.615,1.16-1.286,2.32-2.013,3.433l-.028.024a62.962,62.962,0,0,1-7.744,10.224l-.028.024a75.466,75.466,0,0,1-6.262,6.066c-.867.75-1.761,1.5-2.656,2.2a81.694,81.694,0,0,1-20.3,11.674q-3.262,1.355-6.682,2.393c-2.236.7-4.473,1.3-6.765,1.837-1.705.387-3.383.725-5.144,1.015h-.028c-.587.1-1.2.193-1.817.266a81.208,81.208,0,0,1-8.722.894,74.613,74.613,0,0,1-7.716.1.672.672,0,0,1-.447,0,49.639,49.639,0,0,1-5.088-.314,9.982,9.982,0,0,1-1.482-.1c-1.258-.121-2.488-.266-3.718-.459a71.467,71.467,0,0,1-7.828-1.45,84.54,84.54,0,0,1-9.421-2.707c-1.733-.581-3.439-1.233-5.144-1.958a87.012,87.012,0,0,1-9.393-4.641c-2.237-1.3-4.445-2.707-6.57-4.229a69.4,69.4,0,0,1-5.759-4.52,73.047,73.047,0,0,1-8.331-8.387c-1.23-1.45-2.376-2.925-3.439-4.447a63.668,63.668,0,0,1-8.75-16.968,57.117,57.117,0,0,1-1.985-7.324,60.429,60.429,0,0,1,1.146-29.2c.14-.411.251-.822.419-1.209a32.663,32.663,0,0,1,1.23-3.6c.14-.483.335-.918.5-1.378.224-.532.447-1.064.727-1.619a8.376,8.376,0,0,1,.587-1.353c.168-.387.364-.774.559-1.136v-.072a63.1,63.1,0,0,1,5.479-9.161v-.073A71.49,71.49,0,0,1,314.63,752.1a80.233,80.233,0,0,1,6.877-5.293h.028a74.649,74.649,0,0,1,8.974-5.342h.028a83.172,83.172,0,0,1,11.127-4.761c.531-.193,1.09-.363,1.621-.532.615-.218,1.23-.411,1.845-.6a17.809,17.809,0,0,1,1.873-.484l.028-.024A41.58,41.58,0,0,1,351.28,734l.028-.024c.391-.1.783-.193,1.174-.266a93.971,93.971,0,0,1,41.906.677h.028a89.2,89.2,0,0,1,9.337,2.828h.056a82.2,82.2,0,0,1,8.834,3.867h.028q2.9,1.422,5.619,3.094a74.315,74.315,0,0,1,25.356,24.654c1.007,1.619,1.9,3.288,2.74,4.955a65.271,65.271,0,0,1,3.8,9.523,48.284,48.284,0,0,1,1.761,6.816,31.992,31.992,0,0,1,.5,3.215,5.913,5.913,0,0,1,.14,1.209,37.133,37.133,0,0,1,.335,4.3,1.817,1.817,0,0,1,.028.677A57.839,57.839,0,0,1,451.782,813.545Z" transform="translate(-290.859 -731.67)" fill="#f2f2f2"/>
          <path id="Path_15616-2" data-name="Path 15616" d="M446.745,836.055c-2.181,1.06-4.445,2.024-6.738,2.915a131.947,131.947,0,0,1-41.1,7.661c-11.071.169-25.385-1.638-32.569-10.528,33.008-11.341,61.706-30.367,82.89-54.951-.839-1.662-1.733-3.325-2.74-4.939-20.845,25.017-49.613,44.33-82.862,55.626-.056-.12-.14-.265-.2-.409l-.168-.434c-6.15-15.081,1.957-33.438,10.763-44.568a109.468,109.468,0,0,1,39.418-31.511,78.018,78.018,0,0,1,7.688-3.276q-2.718-1.664-5.619-3.084h-.028c-1.678.7-3.243,1.446-4.725,2.144a114.867,114.867,0,0,0-41.375,33.029c-9.533,12.045-18.227,32.089-11.378,48.881a4.223,4.223,0,0,0,.2.53l.251.506q-11.683,3.834-23.791,6.577h-.028a69.19,69.19,0,0,1-10.456-18.863,22.719,22.719,0,0,0,12.245-7.348,41.162,41.162,0,0,0,4-5.18c1.678-2.53,3.327-5.083,5-7.637,5.647-8.625,11.462-17.586,17.948-25.9,8.722-11.227,17.529-21.682,29.55-26.693a60.393,60.393,0,0,1,13.671-3.9,89.257,89.257,0,0,0-9.337-2.819h-.028a64.581,64.581,0,0,0-6.737,2.385c-13.307,5.517-22.616,16.551-31.758,28.331-6.6,8.5-12.5,17.514-18.2,26.235-1.649,2.553-3.3,5.083-4.976,7.613a36.391,36.391,0,0,1-3.523,4.6,17.128,17.128,0,0,1-9.365,5.661h-.028c-9.449-33.2,9.142-65.166,10.707-67.768a74.59,74.59,0,0,0-8.974,5.324h-.028c-5.619,12-14.286,36.161-7.6,61.89a14.827,14.827,0,0,1-3.411-1.951,18.677,18.677,0,0,1-6.625-12.19,51.513,51.513,0,0,1-.727-8.119c0-.121-.28-11.2-.364-21.441a62.828,62.828,0,0,0-5.479,9.131v.072c.112,6.794.251,12.262.251,12.334a56.233,56.233,0,0,0,.783,8.769,23.058,23.058,0,0,0,8.443,15.033,18.23,18.23,0,0,0,8.778,3.758,72.307,72.307,0,0,0,10.512,19.875c-3.075.626-6.151,1.2-9.253,1.735a84.892,84.892,0,0,0-24.685-22.14,56.823,56.823,0,0,0,1.985,7.3,79.479,79.479,0,0,1,16.746,15.8c-2.712.41-5.4.771-8,1.108,1.062,1.517,2.208,2.987,3.438,4.433,2.516-.338,5.088-.723,7.716-1.132a48.479,48.479,0,0,1,6.374,14c2.125,1.518,4.333,2.915,6.57,4.216a51.05,51.05,0,0,0-7.157-19.176q4.864-.867,9.645-1.879a95.452,95.452,0,0,0,18.228,16.527c-7.66,2.794-10.372,6.7-11.322,9.154,1.706.723,3.411,1.373,5.144,1.951.28-1.228,2.013-5.131,11.378-7.612a155.843,155.843,0,0,0,24.322,12.527,81.7,81.7,0,0,0,8.722-.891c.615-.072,1.23-.169,1.817-.265a169.808,169.808,0,0,1-27.453-12.744,126.591,126.591,0,0,1,23.371-.289,128.586,128.586,0,0,0,43-3.831c.895-.7,1.789-1.446,2.656-2.192a75.473,75.473,0,0,0,6.262-6.047c-10.344,4.361-27.313,8.89-51.467,7.275a114.785,114.785,0,0,0-30.053,1.2,95.2,95.2,0,0,1-18.786-16.093q11.629-2.665,22.869-6.408c6.542,8.841,19.15,13.491,36.734,13.491H399a139.117,139.117,0,0,0,43.276-8.071c1.314-.506,2.628-1.036,3.914-1.614l.028-.024c.727-1.109,1.4-2.265,2.013-3.422a43.183,43.183,0,0,0,2.152-4.192C449.205,834.8,448,835.429,446.745,836.055Z" transform="translate(-293.706 -738.741)" fill="#f2f2f2"/>
        </g>
      </g>
      <g id="Group_901" data-name="Group 901" opacity="0.15">
        <g id="Group_660-3" data-name="Group 660">
          <path id="Path_15615-3" data-name="Path 15615" d="M451.782,813.545a56.1,56.1,0,0,1-1.482,6.019,61.371,61.371,0,0,1-2.125,5.825c-.223.508-.419,1.016-.643,1.547a43.5,43.5,0,0,1-2.153,4.206c-.615,1.16-1.286,2.32-2.013,3.433l-.028.024a62.962,62.962,0,0,1-7.744,10.224l-.028.024a75.466,75.466,0,0,1-6.262,6.066c-.867.75-1.761,1.5-2.656,2.2a81.694,81.694,0,0,1-20.3,11.674q-3.262,1.355-6.682,2.393c-2.236.7-4.473,1.3-6.765,1.837-1.705.387-3.383.725-5.144,1.015h-.028c-.587.1-1.2.193-1.817.266a81.208,81.208,0,0,1-8.722.894,74.613,74.613,0,0,1-7.716.1.672.672,0,0,1-.447,0,49.639,49.639,0,0,1-5.088-.314,9.982,9.982,0,0,1-1.482-.1c-1.258-.121-2.488-.266-3.718-.459a71.467,71.467,0,0,1-7.828-1.45,84.54,84.54,0,0,1-9.421-2.707c-1.733-.581-3.439-1.233-5.144-1.958a87.012,87.012,0,0,1-9.393-4.641c-2.237-1.3-4.445-2.707-6.57-4.229a69.4,69.4,0,0,1-5.759-4.52,73.047,73.047,0,0,1-8.331-8.387c-1.23-1.45-2.376-2.925-3.439-4.447a63.668,63.668,0,0,1-8.75-16.968,57.117,57.117,0,0,1-1.985-7.324,60.429,60.429,0,0,1,1.146-29.2c.14-.411.251-.822.419-1.209a32.663,32.663,0,0,1,1.23-3.6c.14-.483.335-.918.5-1.378.224-.532.447-1.064.727-1.619a8.376,8.376,0,0,1,.587-1.353c.168-.387.364-.774.559-1.136v-.072a63.1,63.1,0,0,1,5.479-9.161v-.073A71.49,71.49,0,0,1,314.63,752.1a80.233,80.233,0,0,1,6.877-5.293h.028a74.649,74.649,0,0,1,8.974-5.342h.028a83.172,83.172,0,0,1,11.127-4.761c.531-.193,1.09-.363,1.621-.532.615-.218,1.23-.411,1.845-.6a17.809,17.809,0,0,1,1.873-.484l.028-.024A41.58,41.58,0,0,1,351.28,734l.028-.024c.391-.1.783-.193,1.174-.266a93.971,93.971,0,0,1,41.906.677h.028a89.2,89.2,0,0,1,9.337,2.828h.056a82.2,82.2,0,0,1,8.834,3.867h.028q2.9,1.422,5.619,3.094a74.315,74.315,0,0,1,25.356,24.654c1.007,1.619,1.9,3.288,2.74,4.955a65.271,65.271,0,0,1,3.8,9.523,48.284,48.284,0,0,1,1.761,6.816,31.992,31.992,0,0,1,.5,3.215,5.913,5.913,0,0,1,.14,1.209,37.133,37.133,0,0,1,.335,4.3,1.817,1.817,0,0,1,.028.677A57.839,57.839,0,0,1,451.782,813.545Z" transform="translate(-290.859 -731.67)" fill="#37d3a5"/>
          <path id="Path_15616-3" data-name="Path 15616" d="M446.745,836.055c-2.181,1.06-4.445,2.024-6.738,2.915a131.947,131.947,0,0,1-41.1,7.661c-11.071.169-25.385-1.638-32.569-10.528,33.008-11.341,61.706-30.367,82.89-54.951-.839-1.662-1.733-3.325-2.74-4.939-20.845,25.017-49.613,44.33-82.862,55.626-.056-.12-.14-.265-.2-.409l-.168-.434c-6.15-15.081,1.957-33.438,10.763-44.568a109.468,109.468,0,0,1,39.418-31.511,78.018,78.018,0,0,1,7.688-3.276q-2.718-1.664-5.619-3.084h-.028c-1.678.7-3.243,1.446-4.725,2.144a114.867,114.867,0,0,0-41.375,33.029c-9.533,12.045-18.227,32.089-11.378,48.881a4.223,4.223,0,0,0,.2.53l.251.506q-11.683,3.834-23.791,6.577h-.028a69.19,69.19,0,0,1-10.456-18.863,22.719,22.719,0,0,0,12.245-7.348,41.162,41.162,0,0,0,4-5.18c1.678-2.53,3.327-5.083,5-7.637,5.647-8.625,11.462-17.586,17.948-25.9,8.722-11.227,17.529-21.682,29.55-26.693a60.393,60.393,0,0,1,13.671-3.9,89.257,89.257,0,0,0-9.337-2.819h-.028a64.581,64.581,0,0,0-6.737,2.385c-13.307,5.517-22.616,16.551-31.758,28.331-6.6,8.5-12.5,17.514-18.2,26.235-1.649,2.553-3.3,5.083-4.976,7.613a36.391,36.391,0,0,1-3.523,4.6,17.128,17.128,0,0,1-9.365,5.661h-.028c-9.449-33.2,9.142-65.166,10.707-67.768a74.59,74.59,0,0,0-8.974,5.324h-.028c-5.619,12-14.286,36.161-7.6,61.89a14.827,14.827,0,0,1-3.411-1.951,18.677,18.677,0,0,1-6.625-12.19,51.513,51.513,0,0,1-.727-8.119c0-.121-.28-11.2-.364-21.441a62.828,62.828,0,0,0-5.479,9.131v.072c.112,6.794.251,12.262.251,12.334a56.233,56.233,0,0,0,.783,8.769,23.058,23.058,0,0,0,8.443,15.033,18.23,18.23,0,0,0,8.778,3.758,72.307,72.307,0,0,0,10.512,19.875c-3.075.626-6.151,1.2-9.253,1.735a84.892,84.892,0,0,0-24.685-22.14,56.823,56.823,0,0,0,1.985,7.3,79.479,79.479,0,0,1,16.746,15.8c-2.712.41-5.4.771-8,1.108,1.062,1.517,2.208,2.987,3.438,4.433,2.516-.338,5.088-.723,7.716-1.132a48.479,48.479,0,0,1,6.374,14c2.125,1.518,4.333,2.915,6.57,4.216a51.05,51.05,0,0,0-7.157-19.176q4.864-.867,9.645-1.879a95.452,95.452,0,0,0,18.228,16.527c-7.66,2.794-10.372,6.7-11.322,9.154,1.706.723,3.411,1.373,5.144,1.951.28-1.228,2.013-5.131,11.378-7.612a155.843,155.843,0,0,0,24.322,12.527,81.7,81.7,0,0,0,8.722-.891c.615-.072,1.23-.169,1.817-.265a169.808,169.808,0,0,1-27.453-12.744,126.591,126.591,0,0,1,23.371-.289,128.586,128.586,0,0,0,43-3.831c.895-.7,1.789-1.446,2.656-2.192a75.473,75.473,0,0,0,6.262-6.047c-10.344,4.361-27.313,8.89-51.467,7.275a114.785,114.785,0,0,0-30.053,1.2,95.2,95.2,0,0,1-18.786-16.093q11.629-2.665,22.869-6.408c6.542,8.841,19.15,13.491,36.734,13.491H399a139.117,139.117,0,0,0,43.276-8.071c1.314-.506,2.628-1.036,3.914-1.614l.028-.024c.727-1.109,1.4-2.265,2.013-3.422a43.183,43.183,0,0,0,2.152-4.192C449.205,834.8,448,835.429,446.745,836.055Z" transform="translate(-293.706 -738.741)"/>
        </g>
      </g>
    </g>
    <g id="Group_875" data-name="Group 875" transform="translate(151 84)">
      <g id="Group_660-4" data-name="Group 660">
        <path id="Path_15615-4" data-name="Path 15615" d="M451.782,826.369c-.364,2.349-.895,4.669-1.482,6.961-.615,2.293-1.314,4.529-2.125,6.737-.223.587-.419,1.175-.643,1.79-.643,1.649-1.342,3.271-2.153,4.864-.615,1.342-1.286,2.684-2.013,3.97l-.028.027a72.856,72.856,0,0,1-7.744,11.826l-.028.028a81.9,81.9,0,0,1-6.262,7.016c-.867.867-1.761,1.733-2.656,2.544a79.777,79.777,0,0,1-20.3,13.5,65.835,65.835,0,0,1-6.682,2.768c-2.236.811-4.473,1.509-6.765,2.125-1.705.447-3.383.839-5.144,1.174h-.028c-.587.112-1.2.224-1.817.308a70.593,70.593,0,0,1-8.722,1.034,64.53,64.53,0,0,1-7.716.112.586.586,0,0,1-.447,0,43.018,43.018,0,0,1-5.088-.364,8.656,8.656,0,0,1-1.482-.112c-1.258-.139-2.488-.308-3.718-.531a62.847,62.847,0,0,1-7.828-1.677,75.949,75.949,0,0,1-9.421-3.131c-1.733-.672-3.439-1.426-5.144-2.264a82.846,82.846,0,0,1-9.393-5.368c-2.237-1.509-4.445-3.131-6.57-4.892a71.98,71.98,0,0,1-5.759-5.228,79.931,79.931,0,0,1-8.331-9.7c-1.23-1.677-2.376-3.383-3.439-5.144a78.42,78.42,0,0,1-8.75-19.626,74.422,74.422,0,0,1-1.985-8.471,80.492,80.492,0,0,1,1.146-33.771c.14-.475.251-.951.419-1.4a41.971,41.971,0,0,1,1.23-4.165c.14-.559.335-1.062.5-1.594.224-.615.447-1.23.727-1.873a10.534,10.534,0,0,1,.587-1.565c.168-.448.364-.895.559-1.314v-.084a76.108,76.108,0,0,1,5.479-10.6V770.2a79.514,79.514,0,0,1,11.854-14.9,82.853,82.853,0,0,1,6.877-6.122h.028A73.292,73.292,0,0,1,330.509,743h.028a77.646,77.646,0,0,1,11.127-5.507c.531-.224,1.09-.419,1.621-.615.615-.252,1.23-.476,1.845-.7a15.875,15.875,0,0,1,1.873-.559l.028-.028a37.021,37.021,0,0,1,4.249-1.23l.028-.028c.391-.112.783-.223,1.174-.307a81.6,81.6,0,0,1,41.906.783h.028a80.443,80.443,0,0,1,9.337,3.271h.056a76.958,76.958,0,0,1,8.834,4.473h.028a65.739,65.739,0,0,1,5.619,3.578,80.714,80.714,0,0,1,25.356,28.515c1.007,1.873,1.9,3.8,2.74,5.731a82.792,82.792,0,0,1,3.8,11.015,63.048,63.048,0,0,1,1.761,7.884c.223,1.23.391,2.488.5,3.718a7.865,7.865,0,0,1,.14,1.4,49.552,49.552,0,0,1,.335,4.976,2.425,2.425,0,0,1,.028.783A77.1,77.1,0,0,1,451.782,826.369Z" transform="translate(-290.859 -731.67)" fill="#37d3a5"/>
        <path id="Path_15616-4" data-name="Path 15616" d="M446.745,851.164c-2.181,1.23-4.445,2.348-6.738,3.382a115.927,115.927,0,0,1-41.1,8.89c-11.071.2-25.385-1.9-32.569-12.217a191.658,191.658,0,0,0,82.89-63.768c-.839-1.929-1.733-3.858-2.74-5.731a185.993,185.993,0,0,1-82.862,64.551c-.056-.14-.14-.308-.2-.475l-.168-.5c-6.15-17.5,1.957-38.8,10.763-51.719a114.191,114.191,0,0,1,39.418-36.566,72.691,72.691,0,0,1,7.688-3.8,65.71,65.71,0,0,0-5.619-3.579h-.028c-1.678.811-3.243,1.678-4.725,2.488a119.787,119.787,0,0,0-41.375,38.328c-9.533,13.978-18.227,37.237-11.378,56.723a5.424,5.424,0,0,0,.2.615l.251.587A233.947,233.947,0,0,1,334.668,856h-.028a84.769,84.769,0,0,1-10.456-21.889,22.417,22.417,0,0,0,12.245-8.527,47.625,47.625,0,0,0,4-6.011c1.678-2.935,3.327-5.9,5-8.862,5.647-10.008,11.462-20.408,17.948-30.053,8.722-13.028,17.529-25.16,29.55-30.976a54.148,54.148,0,0,1,13.671-4.529,80.293,80.293,0,0,0-9.337-3.271h-.028a58.944,58.944,0,0,0-6.737,2.767c-13.307,6.4-22.616,19.206-31.758,32.877-6.6,9.868-12.5,20.324-18.2,30.444-1.649,2.963-3.3,5.9-4.976,8.834a42.194,42.194,0,0,1-3.523,5.34,16.925,16.925,0,0,1-9.365,6.57h-.028c-9.449-38.524,9.142-75.622,10.707-78.641a73.2,73.2,0,0,0-8.974,6.179h-.028c-5.619,13.923-14.286,41.963-7.6,71.82a14.46,14.46,0,0,1-3.411-2.264,22.846,22.846,0,0,1-6.625-14.146,69.127,69.127,0,0,1-.727-9.421c0-.14-.28-13-.364-24.882a76.085,76.085,0,0,0-5.479,10.6v.083c.112,7.884.251,14.23.251,14.314a75.465,75.465,0,0,0,.783,10.176,28.074,28.074,0,0,0,8.443,17.445,17.06,17.06,0,0,0,8.778,4.361A89.187,89.187,0,0,0,328.91,857.4c-3.075.727-6.151,1.4-9.253,2.013a90.779,90.779,0,0,0-24.685-25.692,74.474,74.474,0,0,0,1.985,8.471A85.944,85.944,0,0,1,313.7,860.529c-2.712.476-5.4.894-8,1.286,1.062,1.761,2.208,3.466,3.438,5.144,2.516-.392,5.088-.839,7.716-1.314a60.933,60.933,0,0,1,6.374,16.242c2.125,1.761,4.333,3.383,6.57,4.892a65.392,65.392,0,0,0-7.157-22.253q4.864-1.007,9.645-2.181a102.3,102.3,0,0,0,18.228,19.178c-7.66,3.243-10.372,7.772-11.322,10.623,1.706.839,3.411,1.594,5.144,2.264.28-1.425,2.013-5.955,11.378-8.834a149.258,149.258,0,0,0,24.322,14.537,70.8,70.8,0,0,0,8.722-1.034c.615-.084,1.23-.2,1.817-.307a160.087,160.087,0,0,1-27.453-14.789,109.182,109.182,0,0,1,23.371-.335,111.53,111.53,0,0,0,43-4.445c.895-.811,1.789-1.678,2.656-2.544a82.018,82.018,0,0,0,6.262-7.017c-10.344,5.06-27.313,10.316-51.467,8.443a99.141,99.141,0,0,0-30.053,1.4,100.764,100.764,0,0,1-18.786-18.675,220.984,220.984,0,0,0,22.869-7.436c6.542,10.26,19.15,15.655,36.734,15.655H399a122.227,122.227,0,0,0,43.276-9.365c1.314-.587,2.628-1.2,3.914-1.873l.028-.027c.727-1.286,1.4-2.628,2.013-3.97.811-1.593,1.51-3.215,2.152-4.864C449.205,849.71,448,850.437,446.745,851.164Z" transform="translate(-293.706 -738.741)"/>
      </g>
    </g>
    <ellipse id="Ellipse_190" data-name="Ellipse 190" cx="48.692" cy="5.826" rx="48.692" ry="5.826" transform="translate(184.452 270.299)" fill="#b5b5b5" opacity="0.5"/>
  </g>
</svg>
